<svg xmlns="http://www.w3.org/2000/svg" width="14" height="14" viewBox="0 0 14 14"><path d="M5.685 12.46c-.837 0-1.515-.68-1.515-1.514 0-.837.68-1.515 1.515-1.515.837 0 1.515.683 1.515 1.517.002.836-.68 1.515-1.515 1.515zm0-2.452c-.517 0-.938.42-.938.938 0 .517.42.938.938.938s.938-.42.938-.938c0-.517-.42-.938-.938-.938zM9.98 12.46c-.837 0-1.515-.68-1.515-1.514 0-.837.68-1.515 1.515-1.515s1.515.683 1.515 1.517c0 .836-.678 1.515-1.515 1.515zm0-2.452c-.517 0-.938.42-.938.938 0 .517.42.938.938.938s.938-.42.938-.938c0-.517-.42-.938-.938-.938z"/><path d="M11.476 9.863H4.19c-.135 0-.25-.09-.28-.22L2.08 2.115H.288c-.158 0-.287-.13-.287-.29S.13 1.54.29 1.54h2.02c.135 0 .25.09.28.22l.574 2.362h10.55c.098 0 .19.05.24.13.053.083.064.184.026.274L11.744 9.69c-.047.104-.15.17-.266.17zm-7.06-.577h6.87l1.986-4.588h-9.97l1.114 4.588z"/></svg>