<svg xmlns="http://www.w3.org/2000/svg" xmlns:xlink="http://www.w3.org/1999/xlink" viewBox="0 0 205.8 266.51"><defs><linearGradient id="Dégradé_sans_nom_83" x1="127.51" y1="241.24" x2="127.51" y2="207.4" gradientUnits="userSpaceOnUse"><stop offset="0" stop-color="#7b5d58" stop-opacity="0"/><stop offset="0.9" stop-color="#6e4d48"/></linearGradient><linearGradient id="Dégradé_sans_nom_83-2" x1="177.92" y1="213.5" x2="177.92" y2="180.04" xlink:href="#Dégradé_sans_nom_83"/><linearGradient id="Dégradé_sans_nom_83-3" x1="104.16" y1="208.77" x2="104.16" y2="198.75" xlink:href="#Dégradé_sans_nom_83"/><linearGradient id="Dégradé_sans_nom_83-4" x1="30.4" y1="185.67" x2="30.4" y2="150.43" xlink:href="#Dégradé_sans_nom_83"/><radialGradient id="Dégradé_sans_nom_70" cx="107.9" cy="120.15" r="161.27" gradientUnits="userSpaceOnUse"><stop offset="0" stop-color="#ffb3aa"/><stop offset="0.03" stop-color="#ffbfb8"/><stop offset="0.19" stop-color="#dba49e"/><stop offset="0.55" stop-color="#7e5e5b"/><stop offset="1"/></radialGradient><clipPath id="clip-path"><polygon points="30.64 109.29 81.11 79.96 178.32 136.08 127.85 165.41 30.64 109.29" fill="none"/></clipPath><linearGradient id="Dégradé_sans_nom_103" x1="33.51" y1="122.69" x2="175.45" y2="122.69" gradientUnits="userSpaceOnUse"><stop offset="0" stop-color="#582f82"/><stop offset="1" stop-color="#2d0554"/></linearGradient><linearGradient id="Dégradé_sans_nom_130" x1="174.54" y1="214.06" x2="174.54" y2="177.21" gradientUnits="userSpaceOnUse"><stop offset="0" stop-color="#46322e" stop-opacity="0"/><stop offset="0.82" stop-color="#291d1a"/></linearGradient><linearGradient id="Dégradé_sans_nom_130-2" x1="45.88" y1="187.17" x2="45.88" y2="150.33" gradientTransform="matrix(-1, 0, 0, 1, 79.68, 0)" xlink:href="#Dégradé_sans_nom_130"/><linearGradient id="Dégradé_sans_nom_106" x1="-79.12" y1="128.59" x2="165.4" y2="85.38" gradientUnits="userSpaceOnUse"><stop offset="0" stop-color="#582f82"/><stop offset="1" stop-color="#27054a"/></linearGradient><clipPath id="clip-path-2"><polygon points="33.8 109.14 55.2 96.71 77.46 109.56 56.05 122 33.8 109.14" fill="none"/></clipPath><linearGradient id="Dégradé_sans_nom_115" x1="35.41" y1="33.01" x2="35.41" y2="11.85" gradientUnits="userSpaceOnUse"><stop offset="0" stop-color="#fff" stop-opacity="0"/><stop offset="1" stop-color="#fff" stop-opacity="0.5"/></linearGradient><linearGradient id="Dégradé_sans_nom_115-2" x1="75.78" y1="33.01" x2="75.78" y2="11.85" gradientTransform="matrix(-1, 0, 0, 1, 151.69, 0)" xlink:href="#Dégradé_sans_nom_115"/></defs><title>Fichier 1</title><g id="Calque_2" data-name="Calque 2"><g id="icon_1" data-name="icon 1"><polygon points="205.81 213.03 205.79 221.41 128.19 266.51 128.21 258.12 205.81 213.03" opacity="0.1"/><polygon points="128.21 258.12 128.19 266.51 0 192.5 0.02 184.11 128.21 258.12" opacity="0.2"/><polygon points="205.81 213.03 128.21 258.12 0.02 184.11 77.61 139.01 205.81 213.03" opacity="0.3"/><rect x="75.55" y="78.57" width="11.1" height="72.62" rx="5.55" ry="5.55" fill="#61453f"/><path d="M122,182.16v53.53a5.55,5.55,0,0,0,11.1,0V181.8A31.1,31.1,0,0,1,122,182.16Z" fill="url(#Dégradé_sans_nom_83)"/><path d="M172.37,207.95a5.57,5.57,0,0,0,5.55,5.55h0a5.57,5.57,0,0,0,5.55-5.55V154.72c-3.45,1.74-7.46,2.92-11.1,4.47Z" fill="url(#Dégradé_sans_nom_83-2)"/><path d="M183.45,146.91l0-9.41c0,.08,0,.17,0,.25s0,.19,0,.28,0,.15-.06.22,0,.18-.08.26-.06.14-.09.21-.08.18-.13.27l-.12.2c-.06.1-.13.2-.2.3l-.14.18a5,5,0,0,1-.37.4l-.14.14-.26.22-.25.2-.31.21-.33.22-1.35.78a5.45,5.45,0,0,0-1.67-.29h0a5.57,5.57,0,0,0-5.43,4.41l-38.68,22.48a9,9,0,0,1-.82.41l-.25.11-.68.26-.26.09-.45.13-.35.09-.48.1-.33.07c-.33.06-.66.1-1,.14l-.31,0-.6,0H127l-.45,0-.4,0-.44,0-.39-.05-.47-.08-.36-.07-.55-.13-.3-.08c-.32-.09-.63-.2-.94-.32l-.13-.06a9.39,9.39,0,0,1-1.17-.56L35.6,118.9a5.56,5.56,0,0,0-5.18-3.6,5.47,5.47,0,0,0-.91.09l-2.07-1.19c-1.72-1-2.58-2.3-2.58-3.61l0,12.73a3,3,0,0,0,0,.35V126c3.39,2.13,7.24,3.83,11.1,6v-.18l85.43,49.32c.17.1.37.18.55.26v2a31.1,31.1,0,0,0,11.1-.37v-1.55c.25-.11.49-.23.72-.37l38.59-22.42v1.12c3.64-1.55,7.65-2.74,11.1-4.47v-8.29C183.47,147,183.45,147,183.45,146.91Z" fill="url(#Dégradé_sans_nom_83-3)"/><path d="M24.85,180.12a5.55,5.55,0,0,0,11.1,0V129.8c-3.86-2.2-7.71-3.91-11.1-6Z" fill="url(#Dégradé_sans_nom_83-4)"/><path d="M180.9,133.9c3.41,2,3.43,5.2,0,7.17l-47.13,27.39a13.69,13.69,0,0,1-12.38,0l-94-54.26c-3.42-2-3.44-5.2,0-7.17L74.54,79.63a13.69,13.69,0,0,1,12.38,0Z" fill="url(#Dégradé_sans_nom_70)"/><g style="isolation:isolate"><g clip-path="url(#clip-path)"><path d="M173.4,133.25,86,82.8a10.81,10.81,0,0,0-9.8,0l-40.7,23.65c-2.7,1.57-2.68,4.11,0,5.67l87.37,50.45a10.78,10.78,0,0,0,9.8,0l40.7-23.65c2.69-1.56,2.69-4.11,0-5.67" fill="url(#Dégradé_sans_nom_103)"/></g></g><path d="M176.72,156.19v57.88s-4.35-.71-4.35-5.06V158.74Z" fill="url(#Dégradé_sans_nom_130)"/><path d="M31.62,129.3v57.88s4.35-.71,4.35-5.06V131.85Z" fill="url(#Dégradé_sans_nom_130-2)"/><path d="M55.74,123.63l50.72-29.19L87.25,83.51a10.56,10.56,0,0,0-10-1.17C71.47,84.6,36,106.2,36,106.2s-2.72,1.2-2.42,3.51a3.9,3.9,0,0,0,2,2.42C37.08,113,55.74,123.63,55.74,123.63Z" fill="url(#Dégradé_sans_nom_106)"/><g opacity="0.24"><g style="isolation:isolate"><g clip-path="url(#clip-path-2)"><path d="M74.73,108l-16.8-9.7a6,6,0,0,0-5.45,0l-16,9.28c-1.5.87-1.48,2.29,0,3.16l16.8,9.7a6,6,0,0,0,5.44,0l16-9.28c1.49-.87,1.49-2.29,0-3.15"/></g></g></g><path d="M59.93,32.84C59.93,36.45,57,36,53.39,36s-6.54.46-6.54-3.15c0-1.81,1.62-2.1,2.8-3.29s1.93-2.39,3.74-2.39C57,27.17,59.93,29.23,59.93,32.84Z" fill="#50993a"/><path d="M65.44,33.8c0,2.52-2,2.2-4.57,2.2s-4.57.32-4.57-2.2c0-1.26,1.13-1.47,2-2.3s1.35-1.67,2.61-1.67C63.39,29.83,65.44,31.27,65.44,33.8Z" fill="#356927"/><g opacity="0.2"><g style="isolation:isolate"><polygon points="75.35 11.85 75.28 33.88 55.53 22.47 55.59 0.44 75.35 11.85" fill="#898989"/><polygon points="75.35 11.85 75.28 33.88 55.53 22.47 55.59 0.44 75.35 11.85" fill="#898989"/><polygon points="55.59 0.44 55.53 22.47 35.9 33.88 35.97 11.85 55.59 0.44" fill="#c5c5c5"/><polygon points="55.72 23.69 55.66 45.73 35.14 33.88 35.2 11.85 55.72 23.69" fill="#fff"/><polygon points="76.11 11.85 76.05 33.88 55.66 45.73 55.72 23.69 76.11 11.85" fill="#c5c5c5"/><path d="M55.59,0,76.11,11.85,55.72,23.69,35.2,11.85Zm.13,23.25L75.35,11.85,55.59.44,36,11.85,55.72,23.25" fill="#fff"/><path d="M55.59,0,76.11,11.85,55.72,23.69,35.2,11.85Zm.13,23.25L75.35,11.85,55.59.44,36,11.85,55.72,23.25" fill="#fff"/><path d="M55.59,0,76.11,11.85,55.72,23.69,35.2,11.85Zm.13,23.25L75.35,11.85,55.59.44,36,11.85,55.72,23.25" fill="#fff"/><path d="M55.59,0,76.11,11.85,55.72,23.69,35.2,11.85Zm.13,23.25L75.35,11.85,55.59.44,36,11.85,55.72,23.25" fill="#fff"/></g></g><g opacity="0.3"><path d="M55.59,0,76.11,11.85,55.73,23.69,35.21,11.85Zm.13,23.25L75.35,11.85,55.6.44,36,11.85,55.72,23.25" fill="#fff"/></g><polygon points="35.62 33.01 35.21 33.01 35.21 11.85 35.62 12.08 35.62 33.01" fill="url(#Dégradé_sans_nom_115)"/><polygon points="75.7 33.01 76.11 33.01 76.11 11.85 75.7 12.08 75.7 33.01" fill="url(#Dégradé_sans_nom_115-2)"/><circle cx="55.63" cy="56.9" r="1.04" fill="#fff"/><circle cx="55.63" cy="69.5" r="1.04" fill="#fff"/><circle cx="55.63" cy="82.09" r="1.04" fill="#fff"/><circle cx="55.63" cy="107.29" r="1.04" fill="#fff"/><circle cx="55.63" cy="94.69" r="1.04" fill="#fff"/></g></g></svg>