<svg xmlns="http://www.w3.org/2000/svg" xmlns:xlink="http://www.w3.org/1999/xlink" viewBox="0 0 131.99 151.05"><defs><clipPath id="clip-path"><polygon points="45.25 35.3 45.27 29.64 50.2 32.49 50.19 38.15 45.25 35.3" fill="none"/></clipPath><clipPath id="clip-path-2"><polygon points="60.53 44.19 60.55 38.52 65.48 41.36 65.47 47.03 60.53 44.19" fill="none"/></clipPath></defs><title>Fichier 3</title><g id="Calque_2" data-name="Calque 2"><g id="icon_3" data-name="icon 3"><polygon points="131.99 113.23 131.98 119.16 77.11 151.05 77.12 145.12 131.99 113.23" opacity="0.1"/><polygon points="77.12 145.12 77.11 151.05 0 105.97 0.01 100.04 77.12 145.12" opacity="0.2"/><polygon points="131.99 113.23 77.12 145.12 0.01 100.04 54.88 68.16 131.99 113.23" opacity="0.3"/><path d="M86.34,15.64q0-.21,0-.41c0-.06,0-.13,0-.19v-.22q0-.21,0-.42T86.18,14v0c0-.13,0-.26-.07-.4s-.06-.3-.09-.45l0-.16,0-.09,0-.19-.12-.46-.1-.34,0-.06,0-.06-.14-.45-.15-.44,0-.09,0-.07-.1-.27L85,10l-.13-.31,0-.05,0-.06-.19-.42-.22-.45,0-.07,0-.09-.18-.36-.25-.44-.13-.23-.05-.09-.23-.37-.36-.57-.06-.09q-.25-.37-.51-.73l0,0h0l-.38-.5-.31-.39h0l-.33-.39L81.19,4l-.05-.05-.06-.06-.24-.25-.36-.36-.11-.1-.09-.08-.18-.17-.38-.33-.17-.14-.09-.07-.13-.11L79,2l-.27-.19-.05,0,0,0-.36-.24-.36-.22-.08,0L77.5,1,77.4,1,77.26.9,77.15.84,77,.76,76.85.7l0,0L76.46.53h0L76.11.4l0,0-.12,0L75.77.29l-.09,0-.15,0-.11,0-.12,0-.15,0-.08,0-.14,0-.17,0h-.2l-.19,0h-1L73,.09h0a4.37,4.37,0,0,0-.55.15h0l0,0-.23.09L72,.41l-.32.17-1.23.71h0c-1.55.89-2.52,2.8-2.53,5.52l0,15.17a2.38,2.38,0,0,0,1.08,1.87.71.71,0,0,0,.84,0l-.07.06,1.23-.71a.53.53,0,0,0,.12-.1l0,0,0,0,0-.07h0l0-.05,0-.06v-.08h0v-.23h0l0-15.17c0-.24,0-.48,0-.71V6.58q0-.31.09-.6l0-.08q.06-.28.14-.53l0-.09a4.73,4.73,0,0,1,.18-.46l0,0a4.05,4.05,0,0,1,.26-.47l0-.06a3.58,3.58,0,0,1,.25-.33l.1-.11.15-.15a5,5,0,0,1,3.92.72A14.17,14.17,0,0,1,83,15.49l0,15.17A2.38,2.38,0,0,0,84,32.53a.71.71,0,0,0,.84,0l-.07.06L86,31.89a.53.53,0,0,0,.12-.1l0,0,0,0,0-.07h0l0-.05,0-.06v-.08h0V31.2h0l0-15.17Q86.35,15.84,86.34,15.64ZM69.87,23.79h0l0-.07Zm.08-.13h0a.88.88,0,0,0,0-.14A.88.88,0,0,1,69.95,23.66Zm.06-.2h0a1.22,1.22,0,0,0,0-.23A1.22,1.22,0,0,1,70,23.46ZM71.72.81h0ZM84.91,32.47h0l0-.07Zm.08-.13h0a.87.87,0,0,0,0-.13A.87.87,0,0,1,85,32.34Zm.06-.2h0a1.23,1.23,0,0,0,0-.23A1.23,1.23,0,0,1,85.05,32.15Z" fill="#d6d6d6"/><polygon points="80.32 129.16 108.67 113.23 94.06 103 80.32 129.16" fill="#4e7082"/><polygon points="91.87 40.75 102.39 38.12 108.67 113.23 94.06 108.26 90.31 70.47 91.87 40.75" fill="#72a3bd"/><polygon points="50.22 18.69 50.22 30.42 31.37 20.44 50.22 18.69" fill="#735c34"/><polygon points="55.34 14.74 55.34 33.13 50.22 30.42 50.22 18.69 55.34 14.74" fill="#9e845c"/><polygon points="102.39 38.12 55.34 14.74 55.34 33.13 81.35 46.89 91.87 40.75 102.39 38.12" fill="#735c34"/><polygon points="81.35 46.89 91.87 40.75 94.06 108.26 80.32 129.16 77.11 81.38 81.35 46.89" fill="#5f889e"/><polygon points="31.37 20.44 81.35 46.89 80.32 129.16 25.67 97.89 31.37 20.44" fill="#72a3bd"/><g style="isolation:isolate"><g clip-path="url(#clip-path)"><path d="M47.74,31.07c-1.37-.79-2.47-.16-2.48,1.41a5.42,5.42,0,0,0,2.46,4.26c1.36.79,2.47.15,2.47-1.41a5.42,5.42,0,0,0-2.46-4.25" fill="#5c8499"/></g></g><g style="isolation:isolate"><g clip-path="url(#clip-path-2)"><path d="M63,39.94c-1.37-.79-2.47-.16-2.48,1.41A5.42,5.42,0,0,0,63,45.61c1.36.79,2.47.15,2.47-1.41A5.42,5.42,0,0,0,63,39.94" fill="#5c8499"/></g></g><path d="M55.57,17.09,96.64,37.5l-5.26,1.31-.28.07-.25.14L81.3,44.6,38.24,21.81l12.17-1.13.58-.05.46-.35,4.12-3.18m-.23-2.35-5.11,3.95L31.37,20.44l50,26.45,10.52-6.14,10.52-2.63L55.34,14.74Z" fill="#94d3f5"/><path d="M64.57,27.32q0-.21,0-.41c0-.06,0-.13,0-.19v-.22q0-.21,0-.42t-.06-.43v0c0-.13,0-.26-.07-.4s-.06-.3-.09-.45l0-.16,0-.09,0-.19L64,23.85l-.1-.34,0-.06,0-.06L63.74,23l-.15-.44,0-.09,0-.07-.1-.27-.17-.42-.13-.31,0-.05,0-.06-.19-.42-.22-.45,0-.07,0-.09-.18-.36-.25-.44L62,19.2,62,19.11l-.23-.37-.36-.57-.06-.09q-.25-.37-.51-.73l0,0h0l-.38-.5-.31-.39h0L59.75,16l-.33-.37-.05-.05-.06-.06-.24-.25-.36-.36-.11-.1-.09-.08-.18-.17-.38-.33-.17-.14L57.69,14l-.13-.11-.38-.29-.27-.19-.05,0,0,0-.36-.24-.36-.22-.08,0-.27-.15-.1-.05-.14-.07-.11-.06-.17-.08-.12-.06,0,0-.34-.15h0l-.33-.12,0,0-.12,0L54,12l-.09,0-.15,0-.11,0-.12,0-.15,0-.08,0-.14,0-.17,0h-.2l-.19,0h-1l-.4.06h0a4.37,4.37,0,0,0-.55.15h0l0,0-.23.09-.11,0-.32.17L48.65,13h0c-1.55.89-2.52,2.8-2.53,5.52l0,15.17a2.38,2.38,0,0,0,1.08,1.87.71.71,0,0,0,.84,0l-.07.06,1.23-.71a.53.53,0,0,0,.12-.1l0,0,0,0,0-.07h0l0-.05,0-.06v-.08h0V34.2h0l0-15.17c0-.24,0-.48,0-.71v-.06q0-.31.09-.6l0-.08q.06-.28.14-.53l0-.09a4.73,4.73,0,0,1,.18-.46l0,0a4.05,4.05,0,0,1,.26-.47l0-.06a3.58,3.58,0,0,1,.25-.33l.1-.11.15-.15a5,5,0,0,1,3.92.72,14.17,14.17,0,0,1,6.42,11.12l0,15.17a2.38,2.38,0,0,0,1.08,1.87.71.71,0,0,0,.84,0l-.07.06,1.23-.71a.53.53,0,0,0,.12-.1l0,0,0,0,0-.07h0l0-.05,0-.06v-.08h0v-.23h0l0-15.17Q64.58,27.52,64.57,27.32ZM48.09,35.47h0l0-.07Zm.08-.13h0a.88.88,0,0,0,0-.14A.88.88,0,0,1,48.18,35.34Zm.06-.2h0a1.22,1.22,0,0,0,0-.23A1.22,1.22,0,0,1,48.24,35.14Zm1.7-22.65h0ZM63.14,44.15h0l0-.07Zm.08-.13h0a.87.87,0,0,0,0-.13A.87.87,0,0,1,63.22,44Zm.06-.2h0a1.23,1.23,0,0,0,0-.23A1.23,1.23,0,0,1,63.28,43.83Z" fill="#d6d6d6"/></g></g></svg>