<svg xmlns="http://www.w3.org/2000/svg" xmlns:xlink="http://www.w3.org/1999/xlink" viewBox="0 0 205.8 192.08"><defs><linearGradient id="Dégradé_sans_nom_83" x1="127.51" y1="166.82" x2="127.51" y2="132.97" gradientUnits="userSpaceOnUse"><stop offset="0" stop-color="#7b5d58" stop-opacity="0"/><stop offset="0.9" stop-color="#6e4d48"/></linearGradient><linearGradient id="Dégradé_sans_nom_83-2" x1="177.92" y1="139.07" x2="177.92" y2="105.61" xlink:href="#Dégradé_sans_nom_83"/><linearGradient id="Dégradé_sans_nom_83-3" x1="104.16" y1="134.34" x2="104.16" y2="124.32" xlink:href="#Dégradé_sans_nom_83"/><linearGradient id="Dégradé_sans_nom_83-4" x1="30.4" y1="111.25" x2="30.4" y2="76.01" xlink:href="#Dégradé_sans_nom_83"/><radialGradient id="Dégradé_sans_nom_70" cx="107.9" cy="45.72" r="161.27" gradientUnits="userSpaceOnUse"><stop offset="0" stop-color="#ffb3aa"/><stop offset="0.03" stop-color="#ffbfb8"/><stop offset="0.19" stop-color="#dba49e"/><stop offset="0.55" stop-color="#7e5e5b"/><stop offset="1"/></radialGradient><clipPath id="clip-path"><polygon points="30.64 34.87 81.11 5.54 178.32 61.66 127.85 90.98 30.64 34.87" fill="none"/></clipPath><linearGradient id="Dégradé_sans_nom_103" x1="33.51" y1="48.26" x2="175.45" y2="48.26" gradientUnits="userSpaceOnUse"><stop offset="0" stop-color="#582f82"/><stop offset="1" stop-color="#2d0554"/></linearGradient><linearGradient id="Dégradé_sans_nom_130" x1="174.54" y1="139.63" x2="174.54" y2="102.79" gradientUnits="userSpaceOnUse"><stop offset="0" stop-color="#46322e" stop-opacity="0"/><stop offset="0.82" stop-color="#291d1a"/></linearGradient><linearGradient id="Dégradé_sans_nom_130-2" x1="-824.12" y1="112.75" x2="-824.12" y2="75.9" gradientTransform="matrix(-1, 0, 0, 1, -790.32, 0)" xlink:href="#Dégradé_sans_nom_130"/><clipPath id="clip-path-2"><polygon points="68.33 46.87 102.01 27.3 156.84 58.95 123.16 78.53 68.33 46.87" fill="none"/></clipPath><linearGradient id="Dégradé_sans_nom_106" x1="-79.12" y1="54.16" x2="165.4" y2="10.96" gradientUnits="userSpaceOnUse"><stop offset="0" stop-color="#582f82"/><stop offset="1" stop-color="#27054a"/></linearGradient><linearGradient id="Dégradé_sans_nom_120" x1="66.44" y1="15.92" x2="55.65" y2="33.7" gradientUnits="userSpaceOnUse"><stop offset="0" stop-color="#582f82"/><stop offset="1" stop-color="#0f021c"/></linearGradient><linearGradient id="Dégradé_sans_nom_115" x1="36.46" y1="31.76" x2="36.46" y2="11.4" gradientUnits="userSpaceOnUse"><stop offset="0" stop-color="#fff" stop-opacity="0"/><stop offset="1" stop-color="#fff" stop-opacity="0.5"/></linearGradient><linearGradient id="Dégradé_sans_nom_115-2" x1="-793.73" y1="31.76" x2="-793.73" y2="11.4" gradientTransform="matrix(-1, 0, 0, 1, -718.31, 0)" xlink:href="#Dégradé_sans_nom_115"/></defs><title>Fichier 2</title><g id="Calque_2" data-name="Calque 2"><g id="icon_2" data-name="icon 2"><polygon points="205.81 138.6 205.79 146.99 128.19 192.08 128.21 183.69 205.81 138.6" opacity="0.1"/><polygon points="128.21 183.69 128.19 192.08 0 118.07 0.02 109.68 128.21 183.69" opacity="0.2"/><polygon points="205.81 138.6 128.21 183.69 0.02 109.68 77.61 64.59 205.81 138.6" opacity="0.3"/><rect x="75.55" y="4.14" width="11.1" height="72.62" rx="5.55" ry="5.55" fill="#61453f"/><path d="M122,107.74v53.53a5.55,5.55,0,0,0,11.1,0v-53.9A31.1,31.1,0,0,1,122,107.74Z" fill="url(#Dégradé_sans_nom_83)"/><path d="M172.37,133.52a5.57,5.57,0,0,0,5.55,5.55h0a5.57,5.57,0,0,0,5.55-5.55V80.3C180,82,176,83.22,172.37,84.77Z" fill="url(#Dégradé_sans_nom_83-2)"/><path d="M183.45,72.48l0-9.41c0,.08,0,.17,0,.25s0,.19,0,.28,0,.15-.06.22,0,.18-.08.26-.06.14-.09.21-.08.18-.13.27l-.12.2c-.06.1-.13.2-.2.3l-.14.18a5,5,0,0,1-.37.4l-.14.14-.26.22-.25.2-.31.21-.33.22-1.35.78a5.45,5.45,0,0,0-1.67-.29h0a5.57,5.57,0,0,0-5.43,4.41L133.81,94a9,9,0,0,1-.82.41l-.25.11-.68.26-.26.09-.45.13-.35.09-.48.1-.33.07c-.33.06-.66.1-1,.14l-.31,0-.6,0H127l-.45,0-.4,0-.44,0-.39-.05-.47-.08-.36-.07L124,95l-.3-.08c-.32-.09-.63-.2-.94-.32l-.13-.06a9.39,9.39,0,0,1-1.17-.56L35.6,44.47a5.56,5.56,0,0,0-5.18-3.6,5.47,5.47,0,0,0-.91.09l-2.07-1.19c-1.72-1-2.58-2.3-2.58-3.61l0,12.73a3,3,0,0,0,0,.35v2.35c3.39,2.13,7.24,3.83,11.1,6v-.18l85.43,49.32c.17.1.37.18.55.26v2a31.1,31.1,0,0,0,11.1-.37v-1.55c.25-.11.49-.23.72-.37l38.59-22.42v1.12C176,83.9,180,82.72,183.47,81V72.68C183.47,72.61,183.45,72.55,183.45,72.48Z" fill="url(#Dégradé_sans_nom_83-3)"/><path d="M24.85,105.7a5.55,5.55,0,0,0,11.1,0V55.38c-3.86-2.2-7.71-3.91-11.1-6Z" fill="url(#Dégradé_sans_nom_83-4)"/><path d="M180.9,59.47c3.41,2,3.43,5.2,0,7.17L133.81,94a13.69,13.69,0,0,1-12.38,0l-94-54.26c-3.42-2-3.44-5.2,0-7.17L74.54,5.2a13.69,13.69,0,0,1,12.38,0Z" fill="url(#Dégradé_sans_nom_70)"/><g style="isolation:isolate"><g clip-path="url(#clip-path)"><path d="M173.4,58.82,86,8.37a10.81,10.81,0,0,0-9.8,0L35.53,32c-2.7,1.57-2.68,4.11,0,5.67l87.37,50.45a10.78,10.78,0,0,0,9.8,0l40.7-23.65c2.69-1.56,2.69-4.11,0-5.67" fill="url(#Dégradé_sans_nom_103)"/></g></g><path d="M176.72,81.76v57.88s-4.35-.71-4.35-5.06V84.31Z" fill="url(#Dégradé_sans_nom_130)"/><path d="M31.62,54.87v57.88S36,112,36,107.68V57.42Z" fill="url(#Dégradé_sans_nom_130-2)"/><g opacity="0.3"><g style="isolation:isolate"><g clip-path="url(#clip-path-2)"><path d="M83.77,41.56c-1.28-.74-1.28-1.93,0-2.67l16-9.28a5.07,5.07,0,0,1,4.6,0l16.79,9.69c1.28.74,1.28,1.93,0,2.67l-16,9.28a5.07,5.07,0,0,1-4.6,0L83.77,41.56M122,38.82l-16.79-9.69a6.94,6.94,0,0,0-6.29,0l-16,9.28c-1.73,1-1.72,2.64,0,3.65l16.79,9.69a7,7,0,0,0,6.3,0l16-9.28c1.73-1,1.72-2.64,0-3.65"/><path d="M140.63,52.34l-11.71-6.76a2.38,2.38,0,0,0-2.16,0,.66.66,0,0,0,0,1.25l11.71,6.76a2.38,2.38,0,0,0,2.16,0c.59-.34.59-.9,0-1.25" fill="#fff"/><path d="M149.85,62.42l-25.6-14.78a1.14,1.14,0,0,0-1,0l-.05,0c-.29.17-.28.43,0,.6L148.78,63a1.14,1.14,0,0,0,1,0l.05,0a.32.32,0,0,0,0-.6" fill="#fff"/><path d="M146.82,64.18,121.22,49.4a1.14,1.14,0,0,0-1,0l-.05,0c-.29.17-.28.43,0,.6l25.6,14.78a1.14,1.14,0,0,0,1,0l.05,0a.32.32,0,0,0,0-.6" fill="#fff"/><path d="M143.79,65.94l-25.6-14.78a1.13,1.13,0,0,0-1,0l-.05,0a.32.32,0,0,0,0,.6l25.6,14.78a1.15,1.15,0,0,0,1,0l.05,0a.32.32,0,0,0,0-.6" fill="#fff"/><path d="M126.84,59.67l-11.66-6.73a1.19,1.19,0,0,0-1.08,0,.33.33,0,0,0,0,.63l11.66,6.73a1.19,1.19,0,0,0,1.08,0,.33.33,0,0,0,0-.63" fill="#fff"/><path d="M135.86,69.63l-6.54-3.78a2.88,2.88,0,0,0-2.62,0c-.72.42-.71,1.09,0,1.52l6.54,3.78a2.88,2.88,0,0,0,2.61,0,.8.8,0,0,0,0-1.51" fill="#fff"/><path d="M104.41,59.75a7.61,7.61,0,0,0-6.9,0c-1.89,1.1-1.88,2.89,0,4a7.59,7.59,0,0,0,6.89,0c1.9-1.1,1.89-2.89,0-4"/><path d="M114.28,65.45a7.6,7.6,0,0,0-6.89,0c-1.89,1.1-1.89,2.89,0,4a7.59,7.59,0,0,0,6.89,0c1.9-1.1,1.89-2.89,0-4"/><path d="M128.67,73.75l-5.88-3.39a2.57,2.57,0,0,0-2.33,0L115.91,73a.71.71,0,0,0,0,1.35l5.88,3.39a2.57,2.57,0,0,0,2.33,0l4.55-2.64a.71.71,0,0,0,0-1.35"/></g></g></g><path d="M55.74,49.2,106.46,20,87.25,9.08a10.56,10.56,0,0,0-10-1.17C71.47,10.17,36,31.77,36,31.77s-2.72,1.2-2.42,3.51a3.9,3.9,0,0,0,2,2.42C37.08,38.58,55.74,49.2,55.74,49.2Z" fill="url(#Dégradé_sans_nom_106)"/><polygon points="55.87 45.2 35.95 33.26 55.81 21.62 76.18 32.77 55.87 45.2" fill="url(#Dégradé_sans_nom_120)"/><path d="M60.05,31.6c0,3.48-2.82,3-6.29,3s-6.29.44-6.29-3c0-1.74,1.56-2,2.7-3.16s1.86-2.3,3.6-2.3C57.23,26.14,60.05,28.12,60.05,31.6Z" fill="#50993a"/><path d="M65.35,32.52c0,2.43-2,2.12-4.4,2.12s-4.4.31-4.4-2.12c0-1.21,1.09-1.41,1.88-2.21s1.3-1.6,2.51-1.6C63.38,28.7,65.35,30.09,65.35,32.52Z" fill="#356927"/><g opacity="0.2"><g style="isolation:isolate"><polygon points="74.88 11.4 74.82 32.6 55.81 21.62 55.87 0.42 74.88 11.4" fill="#898989"/><polygon points="74.88 11.4 74.82 32.6 55.81 21.62 55.87 0.42 74.88 11.4" fill="#898989"/><polygon points="55.87 0.42 55.81 21.62 36.93 32.6 36.99 11.4 55.87 0.42" fill="#c5c5c5"/><polygon points="56 22.8 55.94 44 36.2 32.6 36.26 11.4 56 22.8" fill="#fff"/><polygon points="75.61 11.4 75.55 32.6 55.94 44 56 22.8 75.61 11.4" fill="#c5c5c5"/><path d="M55.87,0,75.61,11.4,56,22.8,36.26,11.4ZM56,22.37l18.88-11-19-11L37,11.4l19,11" fill="#fff"/><path d="M55.87,0,75.61,11.4,56,22.8,36.26,11.4ZM56,22.37l18.88-11-19-11L37,11.4l19,11" fill="#fff"/><path d="M55.87,0,75.61,11.4,56,22.8,36.26,11.4ZM56,22.37l18.88-11-19-11L37,11.4l19,11" fill="#fff"/><path d="M55.87,0,75.61,11.4,56,22.8,36.26,11.4ZM56,22.37l18.88-11-19-11L37,11.4l19,11" fill="#fff"/></g></g><g opacity="0.3"><path d="M55.87,0,75.62,11.4,56,22.8,36.26,11.4ZM56,22.37l18.88-11-19-11L37,11.4l19,11" fill="#fff"/></g><polygon points="36.65 31.76 36.26 31.76 36.26 11.4 36.65 11.63 36.65 31.76" fill="url(#Dégradé_sans_nom_115)"/><polygon points="75.22 31.76 75.61 31.76 75.61 11.4 75.22 11.63 75.22 31.76" fill="url(#Dégradé_sans_nom_115-2)"/></g></g></svg>