<?xml version="1.0" encoding="utf-8"?>
<!-- Generator: Adobe Illustrator 13.0.0, SVG Export Plug-In . SVG Version: 6.00 Build 14948)  -->
<!DOCTYPE svg PUBLIC "-//W3C//DTD SVG 1.1//EN" "http://www.w3.org/Graphics/SVG/1.1/DTD/svg11.dtd">
<svg version="1.1" xmlns="http://www.w3.org/2000/svg" xmlns:xlink="http://www.w3.org/1999/xlink" viewBox="0 0 1350 280" preserveAspectRatio="xMinYMin meet">
<g id="Icon">
	<path fill="#FFFFFF" d="M25.792,148.391l4.141-1.609c4.666-1.75,5.666-2.334,11.359-3.541c1.045-0.27,2.139-0.469,3.309-0.566
		c3.215-4.427,8.381-7.496,15.539-7.496c0.93,0,1.818,0.066,2.686,0.164V113.67L25.792,148.391z"/>
	<path fill="#FFFFFF" d="M303.702,148.574c4.611,0,8.375,1.293,11.348,3.389c2.174,0.049,4.176,0.371,5.973,0.951
		c-6.885-5.732-34.791-35.361-34.791-37.275v28.492c1.072-0.152,2.184-0.258,3.359-0.258c5.553,0,9.889,1.855,13.063,4.75
		C303.005,148.609,303.343,148.574,303.702,148.574z"/>
	<path fill="#FFFFFF" stroke="#FFFFFF" stroke-width="10" d="M291.481,140.928c0,65.105-52.774,117.865-117.872,117.865
		c-65.101,0-117.874-52.76-117.874-117.865c0-65.102,52.773-117.871,117.874-117.871C238.707,23.057,291.481,75.826,291.481,140.928
		z"/>
	<path fill="#4C721D" d="M248.731,105.43l-23.862,11.953l9.541-17.506l-40.181,26.256l-1.602-0.791l1.968-2.174l-0.003-0.01
		l13.025-14.359l0.43-0.484l-33.709-26.748l-22.678,11.93l8.359-17.107l-29.707,20.047l52.383,54.078l-66.431-53.527l0.788,17.213
		l-19.895-11.172c-33.227,28.004-47.893,36.004-72.164,45.535c5.664-1.197,13.854-0.781,30.34-6.727
		c0.221,19.936,5.299,38.662,14.195,55.068c-0.01,0-0.01,0.004-0.018,0.008l0.083,0.246l0.059-0.025h-0.01
		c1.218,2.246,2.515,4.459,3.872,6.592c3.252-3.277,7.773-7.793,9.074-8.727c2.083-1.508,3.909-5.078,2.396-6.785
		c-1.501-1.699-3.481-1.711-7.876-0.039l0.369-1.789l-2.555,1.607l0.66-2.193l-3.196,1.246l0.669-1.436l-4.546-1.377l4.106-1.26
		l0.024-0.537l2.676,0.504l-0.296-1.359l3.346,1.148l-0.096-0.883l3.186,1.094l0.11-0.846l2.624,1.236c0,0,1.15-0.539,0.394-2.223
		c-0.759-1.68-1.274-2.783-2.505-1.855c-1.232,0.938-1.626-0.063-2.915-0.941c-1.312-0.879-1.556-1.588-1.556-1.588l1.502-0.279
		l-3.438-2.676l1.108-0.684l-2.754-1.791l0.981-0.781l-2.354-2.662l1.184-1.088l-2.48-4.619l1.355-0.836
		c0,0-2.756-7.807-2.539-12.635c0,0,5.254,1.207,7.031,5.586l0.703-2.4l2.287,4.646l0.906-1.254l1.597,4.939l0.879-1.557
		l0.649,6.982l1.672-2.227l-0.388,5.391l1.741-2.199c0,0-0.384,5.031,1.179,7.238c1.563,2.211,4.561,1.83,2.964-0.293
		c-1.597-2.129-2.541-3.594-2.541-3.594l2.053,0.092c0,0-1.206-4.541-0.859-8.1l2.056,0.805c0,0,0.112-4.975,1.724-8.984
		l1.216,1.563c0,0,1.401-4.248,2.3-6.209l1.011,1.131c0,0,1.753-3.438,2.937-5.305l0.943,2.521c0,0,2.575-4.377,4.074-5.695
		l-0.389,2.758c0,0,4.051-1.939,6.482-3.898c2.446-1.961,4.155-3.926,4.155-3.926s-0.63,5.879-4.644,11.982l2.344-1.123
		l-4.731,5.426l2.69-0.25l-4.48,5.514l1.766,0.365l-5.119,5.156l2.58-0.287l-4.702,4.512l0.952,1.004l-3.672,3.418l1.636,0.637
		c0,0-4.717,3.563-4.849,6.313c-0.122,2.738,1.147,2.563,1.699,0.766c0.542-1.785,1.055-2.172,1.055-2.172l0.881,0.434
		c0,0,1.927-4.418,3.885-6.328l1.411,1.152c0,0,3.372-4.955,5.237-6.543l-0.203,2.902c0,0,3.745-4.641,7.212-5.977l-0.501,1.805
		c0,0,4.771-3.191,7.432-3.129l-1.107,2.393c0,0,5.651-3.49,8.522-4.164l-0.273,1.58c0,0,3.786-1.176,6.069-1.561l-0.708,1.537
		c0,0,4.99-0.316,8.496,0.094c3.516,0.414,6.909-0.162,6.909-0.162s-3.713,2.369-8.377,2.857c-4.67,0.502-8.74,3.246-8.74,3.246
		l2.066,0.707l-6.729,2.141l2.946,0.391c0,0-2.236,2.012-6.12,2.416c-3.88,0.391-5.013,0.854-5.013,0.854l4.499,0.514
		c0,0-6.003,1.885-7.152,1.787c-2.391-0.191,1.154,1.344,1.154,1.344l-3.789,1.166l1.89,0.709c0,0-5.798,2.324-8.252,3.203
		c-2.466,0.883-3.594,1.117-3.076,1.727c0.513,0.611,1.442,0.182,4.565-0.652c3.125-0.852,9.451-1.445,9.451-1.445l0.061,1.445
		c0,0,4.514-2.271,7.988-2.246l-0.005,0.854c0,0,3.838-1.393,6.077-1.178l-0.572,1.227c0,0,4.837-0.492,6.468-0.068l-1.436,1.49
		c0,0,3.499-0.904,5.879-0.133l-1.511,1.547c0,0,3.439-0.277,5.648,1.828c0,0-3.428,1.758-6.237,1.777
		c-2.806,0.004-4.431,1.055-4.431,1.055l1.213,0.957l-7.261-1.012l0.688,1.684l-4.941-1.629l0.207,1.973l-5.28-1.242l-0.166,1.465
		l-5.879-1.336l-0.737,2.24l-3.33-1.947l-0.801,1.244l-1.848-1.568c0,0-2.393,1.445-0.35,3.008c2.051,1.578,3.654,0.852,5.513,1.432
		c1.87,0.572,4.114,1.816,4.114,1.816l-0.691,0.83l3.623,1.578l-1.328,0.613l5.176,2.145l-1.055,1.246c0,0,4.539,2.074,5.869,7.602
		c0,0-3.525-2.281-5.205-2.617l0.098,1.563l-3.973-2.691l-0.056,1.715l-5.046-2.984l0.109,1.832l-4.004-2.627l-0.012,2.311
		l-4.344-3.977l-0.576,2.199l-3.833-6.568l-0.869,2.096l-3.467-4.953l-0.804,1.959l-1.611-4.01l-1.342,0.494
		c0,0-0.184-3.33-1.197-3.451c-1.013-0.162-1.514,1.107-1.145,1.348c0.373,0.223,0.435,0.73,0.435,0.73l-1.055,0.982l1.704,1.455
		l-0.525,1.563l1.523,0.855l-0.365,1.738l1.159,1.875l-1.354-0.289l-0.037,5.375l-2.559-4.174l-1.309,2.705l-0.806-6.66
		l-1.011,1.508l-0.125-5.254l-2.111,1.965l1.401-4.664c0,0-5.017,2.49-10.62,8.344c-1.714,1.803-3.101,3.438-4.258,4.889
		c9.526,14.277,22.059,26.367,36.707,35.352c2.988-6.084,9.668-15.826,24.414-26.416c24.001-17.148,72.512-21.592,108.52-34.379
		c35.063-12.447-29.152-35.23-56.506-44.186c103.918,10.363,107.996,55.854,50.402,72.266c-28.889,8.223-51.657,8.779-52.725,22.924
		c-1.335,17.281,19.912,21.484,34.18,17.789c41.346-17.627,70.619-58.102,71.977-105.586c15.336,7.965,25.473,9.16,30.117,9.18
		C307.136,146.768,276.075,131.625,248.731,105.43z"/>
	<path fill="#717074" d="M106.476,71.828l20.586,21.248l41.313-46.119l47.944,52.223l26.055-28.76c0,0,0.07,0.084,0.203,0.219
		c0.09,0.1,0.244,0.27,0.407,0.441c0.088,0.102,0.195,0.219,0.303,0.332c0.083,0.086,0.183,0.195,0.269,0.293
		c0.859,0.928,2.153,2.318,3.823,4.111c0.046,0.059,0.098,0.107,0.146,0.162c1.04,1.111,2.22,2.367,3.522,3.758
		c0.101,0.111,0.198,0.219,0.301,0.326c0.728,0.781,1.499,1.592,2.3,2.441c0.173,0.195,0.347,0.371,0.527,0.566
		c0.427,0.449,0.859,0.904,1.304,1.367c0.539,0.572,1.094,1.158,1.66,1.758c0.366,0.387,0.737,0.777,1.113,1.172
		c0.547,0.582,1.1,1.168,1.676,1.758c0.217,0.24,0.439,0.475,0.666,0.709c0.879,0.922,1.775,1.855,2.688,2.816
		c0.098,0.098,0.207,0.205,0.299,0.309c7.926,8.271,17.318,17.904,26.84,27.305c-9.623-55.76-58.188-98.182-116.668-98.182
		c-58.215,0-106.579,42.014-116.569,97.352c0.13-0.723,2.617-2.334,3.228-2.871C66.565,111.045,99.806,80.068,106.476,71.828z"/>
</g>
<g id="PotGuide.com">
	<g>
		<path fill="#4C721D" d="M349.742,90.82h19.061c10.929,0,18.302,0.478,22.119,1.431c5.465,1.345,9.931,4.109,13.401,8.294
			c3.469,4.186,5.205,9.444,5.205,15.776c0,6.375-1.691,11.634-5.075,15.775c-3.383,4.143-8.045,6.929-13.986,8.36
			c-4.337,1.041-12.448,1.561-24.331,1.561h-6.831v44.498h-9.563V90.82z M359.305,100.188v32.462l16.199,0.195
			c6.548,0,11.341-0.595,14.377-1.785c3.036-1.19,5.421-3.117,7.156-5.779c1.734-2.661,2.602-5.637,2.602-8.928
			c0-3.202-0.868-6.134-2.602-8.796c-1.735-2.662-4.023-4.556-6.863-5.681c-2.841-1.125-7.493-1.688-13.954-1.688H359.305z"/>
		<path fill="#4C721D" d="M459.328,113.915c10.905,0,19.941,3.947,27.11,11.84c6.517,7.2,9.775,15.722,9.775,25.566
			c0,9.889-3.444,18.531-10.329,25.925c-6.887,7.396-15.739,11.092-26.557,11.092c-10.862,0-19.736-3.696-26.622-11.092
			c-6.887-7.394-10.33-16.036-10.33-25.925c0-9.801,3.258-18.301,9.775-25.5C439.32,117.883,448.379,113.915,459.328,113.915z
			 M459.295,122.827c-7.573,0-14.08,2.797-19.521,8.392c-5.44,5.595-8.16,12.361-8.16,20.296c0,5.119,1.24,9.889,3.721,14.313
			c2.48,4.424,5.832,7.84,10.054,10.246c4.221,2.407,8.856,3.61,13.905,3.61c5.048,0,9.683-1.203,13.905-3.61
			c4.222-2.406,7.573-5.822,10.054-10.246c2.48-4.424,3.721-9.193,3.721-14.313c0-7.936-2.731-14.702-8.194-20.296
			C473.319,125.625,466.824,122.827,459.295,122.827z"/>
		<path fill="#4C721D" d="M519.667,89.454h9.107v26.282h14.442v7.872h-14.442v62.908h-9.107v-62.908h-12.426v-7.872h12.426V89.454z"
			/>
		<path fill="#4C721D" d="M649.355,106.889l-7.417,7.026c-5.334-5.247-11.179-9.227-17.532-11.938
			c-6.354-2.71-12.545-4.066-18.573-4.066c-7.504,0-14.649,1.844-21.436,5.53c-6.788,3.687-12.046,8.685-15.776,14.995
			c-3.73,6.31-5.595,12.978-5.595,20.004c0,7.2,1.929,14.042,5.79,20.524c3.859,6.484,9.194,11.58,16.003,15.288
			c6.808,3.708,14.268,5.563,22.378,5.563c9.845,0,18.172-2.775,24.981-8.327c6.808-5.551,10.842-12.751,12.1-21.599H613.77v-9.238
			h41.245c-0.087,14.79-4.479,26.532-13.174,35.227c-8.696,8.696-20.33,13.044-34.901,13.044c-17.695,0-31.704-6.028-42.025-18.085
			c-7.937-9.281-11.905-20.016-11.905-32.203c0-9.064,2.277-17.5,6.831-25.306c4.554-7.807,10.799-13.911,18.735-18.313
			c7.937-4.401,16.915-6.603,26.933-6.603c8.11,0,15.744,1.464,22.899,4.391C635.563,95.732,642.545,100.427,649.355,106.889z"/>
		<path fill="#4C721D" d="M669.23,115.736h9.107v33.047c0,8.067,0.434,13.619,1.303,16.654c1.304,4.338,3.79,7.764,7.461,10.279
			c3.669,2.516,8.045,3.772,13.127,3.772s9.393-1.225,12.934-3.675c3.539-2.45,5.982-5.67,7.33-9.661
			c0.911-2.731,1.367-8.522,1.367-17.37v-33.047h9.303v34.738c0,9.759-1.139,17.109-3.415,22.055
			c-2.276,4.943-5.703,8.814-10.278,11.612c-4.576,2.797-10.312,4.195-17.207,4.195c-6.896,0-12.653-1.398-17.271-4.195
			c-4.619-2.798-8.067-6.701-10.344-11.71c-2.277-5.01-3.416-12.545-3.416-22.607V115.736z"/>
		<path fill="#4C721D" d="M753.217,86.592c2.073,0,3.844,0.738,5.312,2.211c1.468,1.475,2.202,3.253,2.202,5.334
			c0,2.039-0.734,3.796-2.202,5.27c-1.468,1.475-3.238,2.212-5.312,2.212c-2.029,0-3.779-0.737-5.246-2.212
			c-1.469-1.474-2.202-3.23-2.202-5.27c0-2.082,0.733-3.859,2.202-5.334C749.438,87.33,751.188,86.592,753.217,86.592z
			 M748.695,115.736h9.108v70.779h-9.108V115.736z"/>
		<path fill="#4C721D" d="M846.051,88.413v98.103h-8.977v-12.165c-3.817,4.641-8.1,8.132-12.849,10.474s-9.943,3.513-15.581,3.513
			c-10.018,0-18.572-3.632-25.664-10.896c-7.091-7.264-10.637-16.101-10.637-26.51c0-10.191,3.578-18.909,10.734-26.152
			c7.156-7.243,15.765-10.864,25.827-10.864c5.812,0,11.069,1.236,15.775,3.708s8.837,6.18,12.394,11.125V88.413H846.051z
			 M809.653,122.697c-5.068,0-9.747,1.247-14.036,3.737c-4.289,2.491-7.7,5.99-10.234,10.495s-3.801,9.271-3.801,14.295
			c0,4.982,1.277,9.748,3.834,14.296c2.555,4.549,5.988,8.09,10.299,10.624c4.309,2.535,8.934,3.802,13.873,3.802
			c4.982,0,9.703-1.257,14.166-3.77c4.461-2.513,7.895-5.912,10.299-10.201s3.606-9.119,3.606-14.49
			c0-8.188-2.696-15.032-8.09-20.535C824.176,125.449,817.537,122.697,809.653,122.697z"/>
		<path fill="#4C721D" d="M924.932,163.031l7.677,4.033c-2.518,4.943-5.426,8.935-8.726,11.97c-3.299,3.036-7.01,5.346-11.135,6.929
			c-4.125,1.582-8.791,2.374-14,2.374c-11.547,0-20.575-3.783-27.087-11.352c-6.511-7.567-9.767-16.122-9.767-25.665
			c0-8.977,2.756-16.979,8.269-24.004c6.988-8.934,16.343-13.401,28.063-13.401c12.068,0,21.705,4.576,28.91,13.727
			c5.122,6.463,7.727,14.53,7.813,24.201h-63.688c0.173,8.221,2.801,14.961,7.881,20.217c5.08,5.258,11.355,7.887,18.824,7.887
			c3.604,0,7.109-0.626,10.519-1.88c3.408-1.252,6.306-2.916,8.694-4.989C919.568,171.002,922.152,167.654,924.932,163.031z
			 M924.932,143.97c-1.215-4.856-2.984-8.739-5.309-11.645c-2.324-2.905-5.396-5.247-9.217-7.026
			c-3.822-1.778-7.838-2.667-12.049-2.667c-6.949,0-12.92,2.234-17.912,6.701c-3.648,3.253-6.406,8.132-8.272,14.637H924.932z"/>
		<path fill="#727074" d="M960.615,172.203c2.213,0,4.1,0.781,5.66,2.342c1.562,1.562,2.342,3.471,2.342,5.726
			c0,2.212-0.78,4.109-2.342,5.692c-1.561,1.582-3.447,2.374-5.66,2.374c-2.211,0-4.098-0.792-5.659-2.374
			c-1.562-1.583-2.343-3.48-2.343-5.692c0-2.255,0.781-4.164,2.343-5.726C956.518,172.984,958.404,172.203,960.615,172.203z"/>
		<path fill="#727074" d="M1054.85,130.438l-7.222,4.489c-6.237-8.283-14.75-12.425-25.536-12.425
			c-8.621,0-15.779,2.773-21.476,8.318s-8.545,12.281-8.545,20.208c0,5.155,1.311,10.009,3.931,14.556
			c2.621,4.549,6.217,8.079,10.787,10.592s9.691,3.77,15.367,3.77c10.396,0,18.887-4.142,25.472-12.426l7.222,4.749
			c-3.383,5.095-7.927,9.047-13.629,11.855c-5.704,2.809-12.198,4.213-19.484,4.213c-11.189,0-20.471-3.556-27.844-10.669
			c-7.373-7.112-11.059-15.764-11.059-25.957c0-6.852,1.724-13.216,5.172-19.093c3.447-5.876,8.186-10.462,14.215-13.759
			c6.027-3.295,12.771-4.944,20.231-4.944c4.684,0,9.205,0.716,13.563,2.147c4.359,1.431,8.056,3.296,11.092,5.595
			C1050.143,123.956,1052.724,126.883,1054.85,130.438z"/>
		<path fill="#727074" d="M1104.52,113.915c10.904,0,19.941,3.947,27.11,11.84c6.517,7.2,9.775,15.722,9.775,25.566
			c0,9.889-3.444,18.531-10.329,25.925c-6.887,7.396-15.739,11.092-26.557,11.092c-10.862,0-19.736-3.696-26.621-11.092
			c-6.887-7.394-10.33-16.036-10.33-25.925c0-9.801,3.258-18.301,9.775-25.5C1084.512,117.883,1093.57,113.915,1104.52,113.915z
			 M1104.486,122.827c-7.572,0-14.08,2.797-19.52,8.392c-5.44,5.595-8.16,12.361-8.16,20.296c0,5.119,1.24,9.889,3.721,14.313
			s5.832,7.84,10.055,10.246c4.221,2.407,8.855,3.61,13.904,3.61s9.684-1.203,13.906-3.61c4.221-2.406,7.572-5.822,10.054-10.246
			c2.48-4.424,3.722-9.193,3.722-14.313c0-7.936-2.731-14.702-8.194-20.296C1118.512,125.625,1112.016,122.827,1104.486,122.827z"/>
		<path fill="#727074" d="M1156.857,115.736h9.107v12.23c3.169-4.51,6.425-7.807,9.77-9.888c4.602-2.775,9.443-4.164,14.523-4.164
			c3.43,0,6.686,0.673,9.77,2.017c3.082,1.345,5.602,3.134,7.555,5.367c1.954,2.234,3.647,5.432,5.08,9.596
			c3.029-5.551,6.814-9.769,11.357-12.653c4.544-2.884,9.434-4.326,14.668-4.326c4.889,0,9.205,1.236,12.948,3.708
			s6.521,5.92,8.339,10.344s2.727,11.06,2.727,19.907v38.643h-9.303v-38.643c0-7.589-0.541-12.805-1.621-15.646
			c-1.081-2.84-2.93-5.128-5.545-6.863c-2.615-1.734-5.737-2.602-9.368-2.602c-4.409,0-8.44,1.301-12.093,3.903
			c-3.654,2.602-6.323,6.072-8.008,10.409c-1.686,4.337-2.528,11.58-2.528,21.729v27.713h-9.108V150.28
			c0-8.544-0.531-14.345-1.594-17.402s-2.917-5.507-5.562-7.351c-2.646-1.843-5.79-2.765-9.433-2.765
			c-4.207,0-8.144,1.269-11.809,3.806c-3.664,2.537-6.375,5.952-8.131,10.246c-1.757,4.293-2.635,10.864-2.635,19.711v29.99h-9.107
			V115.736z"/>
		<path fill="#727074" d="M1285.957,95.938c2.598,0,5.133,0.667,7.607,2s4.402,3.24,5.783,5.722s2.072,5.069,2.072,7.762
			c0,2.666-0.681,5.229-2.041,7.69s-3.268,4.372-5.722,5.732s-5.021,2.041-7.7,2.041s-5.247-0.68-7.701-2.041
			s-4.365-3.271-5.732-5.732s-2.051-5.024-2.051-7.69c0-2.693,0.694-5.281,2.082-7.762s3.318-4.389,5.793-5.722
			S1283.359,95.938,1285.957,95.938z M1285.957,98.502c-2.174,0-4.29,0.557-6.348,1.671s-3.668,2.707-4.83,4.778
			s-1.742,4.228-1.742,6.47c0,2.229,0.57,4.365,1.712,6.409s2.737,3.637,4.788,4.778s4.191,1.712,6.42,1.712
			s4.367-0.571,6.418-1.712s3.645-2.734,4.779-4.778s1.701-4.18,1.701-6.409c0-2.242-0.577-4.399-1.732-6.47
			s-2.766-3.664-4.83-4.778S1288.117,98.502,1285.957,98.502z M1279.168,119.974v-16.652h5.723c1.955,0,3.369,0.154,4.244,0.461
			s1.572,0.844,2.092,1.61s0.779,1.579,0.779,2.44c0,1.217-0.434,2.276-1.302,3.179s-2.021,1.408-3.456,1.518
			c0.588,0.246,1.061,0.54,1.416,0.882c0.67,0.656,1.49,1.757,2.461,3.302l2.029,3.261h-3.281l-1.477-2.625
			c-1.162-2.064-2.098-3.356-2.809-3.876c-0.492-0.383-1.211-0.574-2.154-0.574h-1.578v7.075H1279.168z M1281.855,110.602h3.26
			c1.559,0,2.622-0.232,3.189-0.697s0.852-1.08,0.852-1.846c0-0.492-0.137-0.933-0.41-1.323s-0.653-0.68-1.139-0.872
			s-1.385-0.287-2.697-0.287h-3.055V110.602z"/>
	</g>
</g>
</svg>
